<svg xmlns="http://www.w3.org/2000/svg" width="536.2924194335938" height="990" viewBox="3.950129747390747 -1040 536.2924194335938 990"><title>Neo4j Graph Visualization</title><desc>Created using Neo4j (http://www.neo4j.com/)</desc><g class="layer links"><g class="link"><path fill="#DFE1E3" d="M 115.48602801317581 -920.0000011678774 C 115.48602801317581 -870.6366203563063 358.3434396030215 -870.6366203563063 358.3434396030215 -820 L 356.3434396030215 -820 C 356.3434396030215 -869.3633808115711 113.48602801317581 -869.3633808115711 113.48602801317581 -920.0000011678774 Z"/><text font-size="10" font-family="Helvetica Neue, Helvetica, Arial, sans-serif" fill="rgb(107, 174, 214)" x="114.48602801317581" y="-906.0000011678774" text-anchor="end">0 </text><text font-size="10" font-family="Helvetica Neue, Helvetica, Arial, sans-serif" fill="rgb(107, 174, 214)" x="114.48602801317581" y="-906.0000011678774" text-anchor="start">rows</text></g><g class="link"><path fill="#DFE1E3" d="M 482.70663550901645 -870.0000000000001 C 482.70663550901645 -829.0845056908104 464.3434396030215 -829.0845056908104 464.3434396030215 -820 L 358.3434396030215 -820 C 358.3434396030215 -860.9154943091896 376.70663550901645 -860.9154943091896 376.70663550901645 -870.0000000000001 Z"/><text font-size="10" font-family="Helvetica Neue, Helvetica, Arial, sans-serif" fill="rgb(107, 174, 214)" x="429.70663550901645" y="-856.0000000000001" text-anchor="end">2,878,588 </text><text font-size="10" font-family="Helvetica Neue, Helvetica, Arial, sans-serif" fill="rgb(107, 174, 214)" x="429.70663550901645" y="-856.0000000000001" text-anchor="start">rows</text></g><g class="link"><path fill="#DFE1E3" d="M 463.3434396030215 -748 C 463.3434396030215 -707.0845056908105 451.96421916322294 -707.0845056908105 451.96421916322294 -698 L 345.96421916322294 -698 C 345.96421916322294 -738.9154943091895 357.3434396030215 -738.9154943091895 357.3434396030215 -748 Z"/><text font-size="10" font-family="Helvetica Neue, Helvetica, Arial, sans-serif" fill="rgb(107, 174, 214)" x="410.3434396030215" y="-734" text-anchor="end">2,878,588 </text><text font-size="10" font-family="Helvetica Neue, Helvetica, Arial, sans-serif" fill="rgb(107, 174, 214)" x="410.3434396030215" y="-734" text-anchor="start">rows</text></g><g class="link"><path fill="#DFE1E3" d="M 451.96421916322294 -556 C 451.96421916322294 -515.0845056908105 442.62970336520397 -515.0845056908105 442.62970336520397 -506 L 336.62970336520397 -506 C 336.62970336520397 -546.9154943091895 345.96421916322294 -546.9154943091895 345.96421916322294 -556 Z"/><text font-size="10" font-family="Helvetica Neue, Helvetica, Arial, sans-serif" fill="rgb(107, 174, 214)" x="398.96421916322294" y="-542" text-anchor="end">2,878,588 </text><text font-size="10" font-family="Helvetica Neue, Helvetica, Arial, sans-serif" fill="rgb(107, 174, 214)" x="398.96421916322294" y="-542" text-anchor="start">rows</text></g><g class="link"><path fill="#DFE1E3" d="M 393.05316278186507 -330 C 393.05316278186507 -302.8205580454556 386.45481093844495 -302.8205580454556 386.45481093844495 -280 L 379.6078921051228 -280 C 379.6078921051228 -307.1794419545444 386.20624394854286 -307.1794419545444 386.20624394854286 -330 Z"/><text font-size="10" font-family="Helvetica Neue, Helvetica, Arial, sans-serif" fill="rgb(107, 174, 214)" x="389.62970336520397" y="-316" text-anchor="end">1 </text><text font-size="10" font-family="Helvetica Neue, Helvetica, Arial, sans-serif" fill="rgb(107, 174, 214)" x="389.62970336520397" y="-316" text-anchor="start">row</text></g><g class="link"><path fill="#DFE1E3" d="M 386.45481093844495 -118 C 386.45481093844495 -90.82055804545557 383.0567831764918 -90.82055804545557 383.0567831764918 -68 L 376.20986434316967 -68 C 376.20986434316967 -95.17944195454443 379.60789210512274 -95.17944195454443 379.60789210512274 -118 Z"/><text font-size="10" font-family="Helvetica Neue, Helvetica, Arial, sans-serif" fill="rgb(107, 174, 214)" x="383.03135152178385" y="-104" text-anchor="end">1 </text><text font-size="10" font-family="Helvetica Neue, Helvetica, Arial, sans-serif" fill="rgb(107, 174, 214)" x="383.03135152178385" y="-104" text-anchor="start">row</text></g></g><g class="layer operators"><g class="operator" transform="translate(269.6333312988281, -68)"><rect class="background" width="220" height="18" rx="4" ry="4" fill="rgb(255, 255, 255)"/><g class="header" pointer-events="all"><path class="banner" d="M 216 0 A 4 4 0 0 1 220 4 L 220 14 A 4 4 0 0 1 216 18 L 4 18 A 4 4 0 0 1 0 14 L 0 4 A 4 4 0 0 1 4 0 Z" style="fill: rgb(198, 219, 239);"/><text class="title" font-size="11" font-family="Helvetica Neue, Helvetica, Arial, sans-serif" x="18" y="13" fill="#000000">Result</text></g><path class="cost" fill="#F25A29" d="M 216 18 A 4 4 0 0 1 216 18 L 4 18 A 4 4 0 0 1 4 18 Z"/><rect class="b-outline" width="220" rx="4" ry="4" fill="none" stroke-width="1" style="stroke: rgb(139, 153, 167);" height="18"/></g><g class="operator" transform="translate(273.0313415527344, -280)"><rect class="background" width="220" height="162" rx="4" ry="4" fill="rgb(255, 255, 255)"/><g class="header" pointer-events="all"><path class="banner" d="M 216 0 A 4 4 0 0 1 220 4 L 220 14 A 4 4 0 0 1 220 18 L 0 18 A 4 4 0 0 1 0 14 L 0 4 A 4 4 0 0 1 4 0 Z" style="fill: rgb(198, 219, 239);"/><path class="expand" fill="#000000" d="M -5 -10 L 8.66 0 L -5 10 Z" transform="translate(9, 9) rotate(90) scale(0.5,0.5)"/><text class="title" font-size="11" font-family="Helvetica Neue, Helvetica, Arial, sans-serif" x="18" y="13" fill="#000000">ProduceResults@neo4j</text></g><path class="cost" fill="#F25A29" d="M 216 162 A 4 4 0 0 1 216 162 L 4 162 A 4 4 0 0 1 4 162 Z"/><rect class="b-outline" width="220" rx="4" ry="4" fill="none" stroke-width="1" style="stroke: rgb(139, 153, 167);" height="162"/><g class="detail identifiers" transform="translate(0, 32)" font-family="'Fira Code',Monaco,'Courier New',Terminal,monospace"><text font-size="10" x="3" text-anchor="start" fill="black" font-family="Helvetica Neue, Helvetica, Arial, sans-serif">`max(relCount)`, nodeCount, </text></g><g class="detail identifiers" transform="translate(0, 46)" font-family="'Fira Code',Monaco,'Courier New',Terminal,monospace"><text font-size="10" x="3" text-anchor="start" fill="black" font-family="Helvetica Neue, Helvetica, Arial, sans-serif">totalRelCount, `min(relCount)`, `</text></g><g class="detail identifiers" transform="translate(0, 60)" font-family="'Fira Code',Monaco,'Courier New',Terminal,monospace"><text font-size="10" x="3" text-anchor="start" fill="black" font-family="Helvetica Neue, Helvetica, Arial, sans-serif">avg(relCount)`</text></g><g class="detail padding" transform="translate(0, 74)" font-family="'Helvetica Neue',Helvetica,Arial,sans-serif"><text font-size="10" x="3" text-anchor="start" fill="black" font-family="Helvetica Neue, Helvetica, Arial, sans-serif"/><path class="divider" visibility="visible" d="M 0 -6 L 220 -6" stroke="#DFE1E3"/></g><g class="detail expression" transform="translate(0, 80)" font-family="'Fira Code',Monaco,'Courier New',Terminal,monospace"><text font-size="10" x="3" text-anchor="start" fill="black" font-family="Helvetica Neue, Helvetica, Arial, sans-serif">`avg(relCount)`, `min(relCount)`, `</text></g><g class="detail expression" transform="translate(0, 94)" font-family="'Fira Code',Monaco,'Courier New',Terminal,monospace"><text font-size="10" x="3" text-anchor="start" fill="black" font-family="Helvetica Neue, Helvetica, Arial, sans-serif">max(relCount)`, nodeCount, </text></g><g class="detail expression" transform="translate(0, 108)" font-family="'Fira Code',Monaco,'Courier New',Terminal,monospace"><text font-size="10" x="3" text-anchor="start" fill="black" font-family="Helvetica Neue, Helvetica, Arial, sans-serif">totalRelCount</text></g><g class="detail padding" transform="translate(0, 122)" font-family="'Helvetica Neue',Helvetica,Arial,sans-serif"><text font-size="10" x="3" text-anchor="start" fill="black" font-family="Helvetica Neue, Helvetica, Arial, sans-serif"/><path class="divider" visibility="visible" d="M 0 -6 L 220 -6" stroke="#DFE1E3"/></g><g class="detail global-memory" transform="translate(0, 128)" font-family="'Helvetica Neue',Helvetica,Arial,sans-serif"><text font-size="10" x="110" text-anchor="end" fill="black" font-family="Helvetica Neue, Helvetica, Arial, sans-serif">17,392 </text><text font-size="10" x="110" text-anchor="start" fill="black" font-family="Helvetica Neue, Helvetica, Arial, sans-serif">total memory (bytes)</text></g><g class="detail estimated-rows" transform="translate(0, 142)" font-family="'Helvetica Neue',Helvetica,Arial,sans-serif"><text font-size="10" x="110" text-anchor="end" fill="black" font-family="Helvetica Neue, Helvetica, Arial, sans-serif">5,365 </text><text font-size="10" x="110" text-anchor="start" fill="black" font-family="Helvetica Neue, Helvetica, Arial, sans-serif">estimated rows</text></g><g class="detail db-hits" transform="translate(0, 156)" font-family="'Helvetica Neue',Helvetica,Arial,sans-serif"><text font-size="10" x="110" text-anchor="end" fill="black" font-family="Helvetica Neue, Helvetica, Arial, sans-serif">0 </text><text font-size="10" x="110" text-anchor="start" fill="black" font-family="Helvetica Neue, Helvetica, Arial, sans-serif">db hits</text></g></g><g class="operator" transform="translate(279.62969970703125, -506)"><rect class="background" width="220" height="176" rx="4" ry="4" fill="rgb(255, 255, 255)"/><g class="header" pointer-events="all"><path class="banner" d="M 216 0 A 4 4 0 0 1 220 4 L 220 14 A 4 4 0 0 1 220 18 L 0 18 A 4 4 0 0 1 0 14 L 0 4 A 4 4 0 0 1 4 0 Z" style="fill: rgb(8, 48, 107);"/><path class="expand" fill="#FFFFFF" d="M -5 -10 L 8.66 0 L -5 10 Z" transform="translate(9, 9) rotate(90) scale(0.5,0.5)"/><text class="title" font-size="11" font-family="Helvetica Neue, Helvetica, Arial, sans-serif" x="18" y="13" fill="#FFFFFF">EagerAggregation@neo4j</text></g><path class="cost" fill="#F25A29" d="M 216 176 A 4 4 0 0 1 216 176 L 4 176 A 4 4 0 0 1 4 176 Z"/><rect class="b-outline" width="220" rx="4" ry="4" fill="none" stroke-width="1" style="stroke: rgb(6, 34, 75);" height="176"/><g class="detail identifiers" transform="translate(0, 32)" font-family="'Fira Code',Monaco,'Courier New',Terminal,monospace"><text font-size="10" x="3" text-anchor="start" fill="black" font-family="Helvetica Neue, Helvetica, Arial, sans-serif">`max(relCount)`, nodeCount, </text></g><g class="detail identifiers" transform="translate(0, 46)" font-family="'Fira Code',Monaco,'Courier New',Terminal,monospace"><text font-size="10" x="3" text-anchor="start" fill="black" font-family="Helvetica Neue, Helvetica, Arial, sans-serif">totalRelCount, `min(relCount)`, `</text></g><g class="detail identifiers" transform="translate(0, 60)" font-family="'Fira Code',Monaco,'Courier New',Terminal,monospace"><text font-size="10" x="3" text-anchor="start" fill="black" font-family="Helvetica Neue, Helvetica, Arial, sans-serif">avg(relCount)`</text></g><g class="detail padding" transform="translate(0, 74)" font-family="'Helvetica Neue',Helvetica,Arial,sans-serif"><text font-size="10" x="3" text-anchor="start" fill="black" font-family="Helvetica Neue, Helvetica, Arial, sans-serif"/><path class="divider" visibility="visible" d="M 0 -6 L 220 -6" stroke="#DFE1E3"/></g><g class="detail expression" transform="translate(0, 80)" font-family="'Fira Code',Monaco,'Courier New',Terminal,monospace"><text font-size="10" x="3" text-anchor="start" fill="black" font-family="Helvetica Neue, Helvetica, Arial, sans-serif">nodeCount, totalRelCount, avg(</text></g><g class="detail expression" transform="translate(0, 94)" font-family="'Fira Code',Monaco,'Courier New',Terminal,monospace"><text font-size="10" x="3" text-anchor="start" fill="black" font-family="Helvetica Neue, Helvetica, Arial, sans-serif">relCount) AS `avg(relCount)`, min(</text></g><g class="detail expression" transform="translate(0, 108)" font-family="'Fira Code',Monaco,'Courier New',Terminal,monospace"><text font-size="10" x="3" text-anchor="start" fill="black" font-family="Helvetica Neue, Helvetica, Arial, sans-serif">relCount) AS `min(relCount)`, max(</text></g><g class="detail expression" transform="translate(0, 122)" font-family="'Fira Code',Monaco,'Courier New',Terminal,monospace"><text font-size="10" x="3" text-anchor="start" fill="black" font-family="Helvetica Neue, Helvetica, Arial, sans-serif">relCount) AS `max(relCount)`</text></g><g class="detail padding" transform="translate(0, 136)" font-family="'Helvetica Neue',Helvetica,Arial,sans-serif"><text font-size="10" x="3" text-anchor="start" fill="black" font-family="Helvetica Neue, Helvetica, Arial, sans-serif"/><path class="divider" visibility="visible" d="M 0 -6 L 220 -6" stroke="#DFE1E3"/></g><g class="detail operator-memory" transform="translate(0, 142)" font-family="'Helvetica Neue',Helvetica,Arial,sans-serif"><text font-size="10" x="110" text-anchor="end" fill="black" font-family="Helvetica Neue, Helvetica, Arial, sans-serif">776 </text><text font-size="10" x="110" text-anchor="start" fill="black" font-family="Helvetica Neue, Helvetica, Arial, sans-serif">memory (bytes)</text></g><g class="detail estimated-rows" transform="translate(0, 156)" font-family="'Helvetica Neue',Helvetica,Arial,sans-serif"><text font-size="10" x="110" text-anchor="end" fill="black" font-family="Helvetica Neue, Helvetica, Arial, sans-serif">5,365 </text><text font-size="10" x="110" text-anchor="start" fill="black" font-family="Helvetica Neue, Helvetica, Arial, sans-serif">estimated rows</text></g><g class="detail db-hits" transform="translate(0, 170)" font-family="'Helvetica Neue',Helvetica,Arial,sans-serif"><text font-size="10" x="110" text-anchor="end" fill="black" font-family="Helvetica Neue, Helvetica, Arial, sans-serif">0 </text><text font-size="10" x="110" text-anchor="start" fill="black" font-family="Helvetica Neue, Helvetica, Arial, sans-serif">db hits</text></g></g><g class="operator" transform="translate(288.9642333984375, -698)"><rect class="background" width="220" height="142" rx="4" ry="4" fill="rgb(255, 255, 255)"/><g class="header" pointer-events="all"><path class="banner" d="M 216 0 A 4 4 0 0 1 220 4 L 220 14 A 4 4 0 0 1 220 18 L 0 18 A 4 4 0 0 1 0 14 L 0 4 A 4 4 0 0 1 4 0 Z" style="fill: rgb(107, 174, 214);"/><path class="expand" fill="#FFFFFF" d="M -5 -10 L 8.66 0 L -5 10 Z" transform="translate(9, 9) rotate(90) scale(0.5,0.5)"/><text class="title" font-size="11" font-family="Helvetica Neue, Helvetica, Arial, sans-serif" x="18" y="13" fill="#FFFFFF">Projection@neo4j</text></g><path class="cost" fill="#F25A29" d="M 0 92 L 220 92 L 220 138 A 4 4 0 0 1 216 142 L 4 142 A 4 4 0 0 1 0 138 Z"/><text class="cost" font-size="10" font-family="Helvetica Neue, Helvetica, Arial, sans-serif" fill="white" x="110" text-anchor="end" y="106">2,878,588 </text><text class="cost" font-size="10" font-family="Helvetica Neue, Helvetica, Arial, sans-serif" fill="white" x="110" text-anchor="start" y="106">db hits</text><rect class="b-outline" width="220" rx="4" ry="4" fill="none" stroke-width="1" style="stroke: rgb(75, 122, 150);" height="142"/><g class="detail identifiers" transform="translate(0, 32)" font-family="'Fira Code',Monaco,'Courier New',Terminal,monospace"><text font-size="10" x="3" text-anchor="start" fill="black" font-family="Helvetica Neue, Helvetica, Arial, sans-serif">nodeCount, totalRelCount, n, </text></g><g class="detail identifiers" transform="translate(0, 46)" font-family="'Fira Code',Monaco,'Courier New',Terminal,monospace"><text font-size="10" x="3" text-anchor="start" fill="black" font-family="Helvetica Neue, Helvetica, Arial, sans-serif">relCount</text></g><g class="detail padding" transform="translate(0, 60)" font-family="'Helvetica Neue',Helvetica,Arial,sans-serif"><text font-size="10" x="3" text-anchor="start" fill="black" font-family="Helvetica Neue, Helvetica, Arial, sans-serif"/><path class="divider" visibility="visible" d="M 0 -6 L 220 -6" stroke="#DFE1E3"/></g><g class="detail expression" transform="translate(0, 66)" font-family="'Fira Code',Monaco,'Courier New',Terminal,monospace"><text font-size="10" x="3" text-anchor="start" fill="black" font-family="Helvetica Neue, Helvetica, Arial, sans-serif">getDegree((n)--()) AS relCount</text></g><g class="detail padding" transform="translate(0, 80)" font-family="'Helvetica Neue',Helvetica,Arial,sans-serif"><text font-size="10" x="3" text-anchor="start" fill="black" font-family="Helvetica Neue, Helvetica, Arial, sans-serif"/><path class="divider" visibility="visible" d="M 0 -6 L 220 -6" stroke="#DFE1E3"/></g><g class="detail estimated-rows" transform="translate(0, 86)" font-family="'Helvetica Neue',Helvetica,Arial,sans-serif"><text font-size="10" x="110" text-anchor="end" fill="black" font-family="Helvetica Neue, Helvetica, Arial, sans-serif">28,785,880 </text><text font-size="10" x="110" text-anchor="start" fill="black" font-family="Helvetica Neue, Helvetica, Arial, sans-serif">estimated rows</text></g></g><g class="operator" transform="translate(300.34344482421875, -820)"><rect class="background" width="220" height="72" rx="4" ry="4" fill="rgb(255, 255, 255)"/><g class="header" pointer-events="all"><path class="banner" d="M 216 0 A 4 4 0 0 1 220 4 L 220 14 A 4 4 0 0 1 220 18 L 0 18 A 4 4 0 0 1 0 14 L 0 4 A 4 4 0 0 1 4 0 Z" style="fill: rgb(33, 113, 181);"/><path class="expand" fill="#FFFFFF" d="M -5 -10 L 8.66 0 L -5 10 Z" transform="translate(9, 9) rotate(90) scale(0.5,0.5)"/><text class="title" font-size="11" font-family="Helvetica Neue, Helvetica, Arial, sans-serif" x="18" y="13" fill="#FFFFFF">Apply@neo4j</text></g><path class="cost" fill="#F25A29" d="M 216 72 A 4 4 0 0 1 216 72 L 4 72 A 4 4 0 0 1 4 72 Z"/><rect class="b-outline" width="220" rx="4" ry="4" fill="none" stroke-width="1" style="stroke: rgb(23, 79, 127);" height="72"/><g class="detail identifiers" transform="translate(0, 32)" font-family="'Fira Code',Monaco,'Courier New',Terminal,monospace"><text font-size="10" x="3" text-anchor="start" fill="black" font-family="Helvetica Neue, Helvetica, Arial, sans-serif">nodeCount, totalRelCount, n</text></g><g class="detail padding" transform="translate(0, 46)" font-family="'Helvetica Neue',Helvetica,Arial,sans-serif"><text font-size="10" x="3" text-anchor="start" fill="black" font-family="Helvetica Neue, Helvetica, Arial, sans-serif"/><path class="divider" visibility="visible" d="M 0 -6 L 220 -6" stroke="#DFE1E3"/></g><g class="detail estimated-rows" transform="translate(0, 52)" font-family="'Helvetica Neue',Helvetica,Arial,sans-serif"><text font-size="10" x="110" text-anchor="end" fill="black" font-family="Helvetica Neue, Helvetica, Arial, sans-serif">28,785,880 </text><text font-size="10" x="110" text-anchor="start" fill="black" font-family="Helvetica Neue, Helvetica, Arial, sans-serif">estimated rows</text></g><g class="detail db-hits" transform="translate(0, 66)" font-family="'Helvetica Neue',Helvetica,Arial,sans-serif"><text font-size="10" x="110" text-anchor="end" fill="black" font-family="Helvetica Neue, Helvetica, Arial, sans-serif">0 </text><text font-size="10" x="110" text-anchor="start" fill="black" font-family="Helvetica Neue, Helvetica, Arial, sans-serif">db hits</text></g></g><g class="operator" transform="translate(4.48602819442749, -1040)"><rect class="background" width="220" height="120" rx="4" ry="4" fill="rgb(255, 255, 255)"/><g class="header" pointer-events="all"><path class="banner" d="M 216 0 A 4 4 0 0 1 220 4 L 220 14 A 4 4 0 0 1 220 18 L 0 18 A 4 4 0 0 1 0 14 L 0 4 A 4 4 0 0 1 4 0 Z" style="fill: rgb(66, 146, 198);"/><path class="expand" fill="#FFFFFF" d="M -5 -10 L 8.66 0 L -5 10 Z" transform="translate(9, 9) rotate(90) scale(0.5,0.5)"/><text class="title" font-size="11" font-family="Helvetica Neue, Helvetica, Arial, sans-serif" x="18" y="13" fill="#FFFFFF">ProcedureCall@neo4j</text></g><path class="cost" fill="#F25A29" d="M 216 120 A 4 4 0 0 1 216 120 L 4 120 A 4 4 0 0 1 4 120 Z"/><rect class="b-outline" width="220" rx="4" ry="4" fill="none" stroke-width="1" style="stroke: rgb(46, 102, 139);" height="120"/><g class="detail identifiers" transform="translate(0, 32)" font-family="'Fira Code',Monaco,'Courier New',Terminal,monospace"><text font-size="10" x="3" text-anchor="start" fill="black" font-family="Helvetica Neue, Helvetica, Arial, sans-serif">nodeCount, totalRelCount</text></g><g class="detail padding" transform="translate(0, 46)" font-family="'Helvetica Neue',Helvetica,Arial,sans-serif"><text font-size="10" x="3" text-anchor="start" fill="black" font-family="Helvetica Neue, Helvetica, Arial, sans-serif"/><path class="divider" visibility="visible" d="M 0 -6 L 220 -6" stroke="#DFE1E3"/></g><g class="detail expression" transform="translate(0, 52)" font-family="'Fira Code',Monaco,'Courier New',Terminal,monospace"><text font-size="10" x="3" text-anchor="start" fill="black" font-family="Helvetica Neue, Helvetica, Arial, sans-serif">apoc.meta.stats() :: (nodeCount :: </text></g><g class="detail expression" transform="translate(0, 66)" font-family="'Fira Code',Monaco,'Courier New',Terminal,monospace"><text font-size="10" x="3" text-anchor="start" fill="black" font-family="Helvetica Neue, Helvetica, Arial, sans-serif">INTEGER?, totalRelCount :: INTEGER?</text></g><g class="detail expression" transform="translate(0, 80)" font-family="'Fira Code',Monaco,'Courier New',Terminal,monospace"><text font-size="10" x="3" text-anchor="start" fill="black" font-family="Helvetica Neue, Helvetica, Arial, sans-serif">)</text></g><g class="detail padding" transform="translate(0, 94)" font-family="'Helvetica Neue',Helvetica,Arial,sans-serif"><text font-size="10" x="3" text-anchor="start" fill="black" font-family="Helvetica Neue, Helvetica, Arial, sans-serif"/><path class="divider" visibility="visible" d="M 0 -6 L 220 -6" stroke="#DFE1E3"/></g><g class="detail estimated-rows" transform="translate(0, 100)" font-family="'Helvetica Neue',Helvetica,Arial,sans-serif"><text font-size="10" x="110" text-anchor="end" fill="black" font-family="Helvetica Neue, Helvetica, Arial, sans-serif">10 </text><text font-size="10" x="110" text-anchor="start" fill="black" font-family="Helvetica Neue, Helvetica, Arial, sans-serif">estimated rows</text></g><g class="detail db-hits" transform="translate(0, 114)" font-family="'Helvetica Neue',Helvetica,Arial,sans-serif"><text font-size="10" x="110" text-anchor="end" fill="black" font-family="Helvetica Neue, Helvetica, Arial, sans-serif">0 </text><text font-size="10" x="110" text-anchor="start" fill="black" font-family="Helvetica Neue, Helvetica, Arial, sans-serif">db hits</text></g></g><g class="operator" transform="translate(319.7066345214844, -1040)"><rect class="background" width="220" height="170.0000011678773" rx="4" ry="4" fill="rgb(255, 255, 255)"/><g class="header" pointer-events="all"><path class="banner" d="M 216 0 A 4 4 0 0 1 220 4 L 220 14 A 4 4 0 0 1 220 18 L 0 18 A 4 4 0 0 1 0 14 L 0 4 A 4 4 0 0 1 4 0 Z" style="fill: rgb(158, 202, 225);"/><path class="expand" fill="#000000" d="M -5 -10 L 8.66 0 L -5 10 Z" transform="translate(9, 9) rotate(90) scale(0.5,0.5)"/><text class="title" font-size="11" font-family="Helvetica Neue, Helvetica, Arial, sans-serif" x="18" y="13" fill="#000000">NodeByLabelScan@neo4j</text></g><path class="cost" fill="#F25A29" d="M 0 120 L 220 120 L 220 166.0000011678773 A 4 4 0 0 1 216 170.0000011678773 L 4 170.0000011678773 A 4 4 0 0 1 0 166.0000011678773 Z"/><text class="cost" font-size="10" font-family="Helvetica Neue, Helvetica, Arial, sans-serif" fill="white" x="110" text-anchor="end" y="134">2,878,589 </text><text class="cost" font-size="10" font-family="Helvetica Neue, Helvetica, Arial, sans-serif" fill="white" x="110" text-anchor="start" y="134">db hits</text><rect class="b-outline" width="220" rx="4" ry="4" fill="none" stroke-width="1" style="stroke: rgb(111, 141, 158);" height="170.0000011678773"/><g class="detail identifiers" transform="translate(0, 32)" font-family="'Fira Code',Monaco,'Courier New',Terminal,monospace"><text font-size="10" x="3" text-anchor="start" fill="black" font-family="Helvetica Neue, Helvetica, Arial, sans-serif">nodeCount, totalRelCount, n</text></g><g class="detail padding" transform="translate(0, 46)" font-family="'Helvetica Neue',Helvetica,Arial,sans-serif"><text font-size="10" x="3" text-anchor="start" fill="black" font-family="Helvetica Neue, Helvetica, Arial, sans-serif"/><path class="divider" visibility="visible" d="M 0 -6 L 220 -6" stroke="#DFE1E3"/></g><g class="detail expression" transform="translate(0, 52)" font-family="'Fira Code',Monaco,'Courier New',Terminal,monospace"><text font-size="10" x="3" text-anchor="start" fill="black" font-family="Helvetica Neue, Helvetica, Arial, sans-serif">n:Artikel</text></g><g class="detail padding" transform="translate(0, 66)" font-family="'Helvetica Neue',Helvetica,Arial,sans-serif"><text font-size="10" x="3" text-anchor="start" fill="black" font-family="Helvetica Neue, Helvetica, Arial, sans-serif"/><path class="divider" visibility="visible" d="M 0 -6 L 220 -6" stroke="#DFE1E3"/></g><g class="detail operator-memory" transform="translate(0, 72)" font-family="'Helvetica Neue',Helvetica,Arial,sans-serif"><text font-size="10" x="110" text-anchor="end" fill="black" font-family="Helvetica Neue, Helvetica, Arial, sans-serif">16,536 </text><text font-size="10" x="110" text-anchor="start" fill="black" font-family="Helvetica Neue, Helvetica, Arial, sans-serif">memory (bytes)</text></g><g class="detail pagecache-hits" transform="translate(0, 86)" font-family="'Helvetica Neue',Helvetica,Arial,sans-serif"><text font-size="10" x="110" text-anchor="end" fill="black" font-family="Helvetica Neue, Helvetica, Arial, sans-serif">8,032,043 </text><text font-size="10" x="110" text-anchor="start" fill="black" font-family="Helvetica Neue, Helvetica, Arial, sans-serif">pagecache hits</text></g><g class="detail pagecache-misses" transform="translate(0, 100)" font-family="'Helvetica Neue',Helvetica,Arial,sans-serif"><text font-size="10" x="110" text-anchor="end" fill="black" font-family="Helvetica Neue, Helvetica, Arial, sans-serif">67,723 </text><text font-size="10" x="110" text-anchor="start" fill="black" font-family="Helvetica Neue, Helvetica, Arial, sans-serif">pagecache misses</text></g><g class="detail estimated-rows" transform="translate(0, 114)" font-family="'Helvetica Neue',Helvetica,Arial,sans-serif"><text font-size="10" x="110" text-anchor="end" fill="black" font-family="Helvetica Neue, Helvetica, Arial, sans-serif">28,785,880 </text><text font-size="10" x="110" text-anchor="start" fill="black" font-family="Helvetica Neue, Helvetica, Arial, sans-serif">estimated rows</text></g></g></g></svg>